# xmcd
#
# Track frame offsets:
#	150
#	17599
#	31488
#	52146
#	72037
#	88676
#	105168
#	124682
#	136997
#	155377
#	174802
#	188888
#	202045
#	226271
#	242343
#	261741
#	278582
#	297391
#	310455
#	324803
#	341058
#
# Disc length: 4751
#
# Revision: 2
# Processed by: cddbd v1.5.1PL0 Copyright (c) Steve Scherf et al.
# Submitted via: CDCOPY 4.744
# Normalized: r1:DSETVAR1,TDELIM( - )
#
DISCID=26128d15
DTITLE=Various Artist - Mia compilation
DYEAR=1900
DGENRE=
TTITLE0=Alice - La bellezza stravagante
TTITLE1=Aretha Franklin - The only thing missing
TTITLE2=Antonello Venditti - Che fantastica storia è la vita
TTITLE3=Eros Ramazzotti - Un attimo di pace
TTITLE4=Christina Aguilera - Can't hold us down
TTITLE5=Frankie Hi-NRG MC - Chiedi chiedi
TTITLE6=Giorgia - L'eternità
TTITLE7=Pretenders - Complicada
TTITLE8=Riccardo Sinigallia - Bellamore
TTITLE9=Samuele Bersani - Cattiva
TTITLE10=Paolo Meneguzzi - Verofalso
TTITLE11=Annie Lennox - A thousand beautiful things
TTITLE12=Lucio Dalla - Prima dammi un bacio
TTITLE13=Pino Marino - Ciao ciao buoafortuna
TTITLE14=Seal - Love's divine
TTITLE15=Mauro di Maggio - Non ti voglio fermare
TTITLE16=OttoOhm - Oro nero
TTITLE17=Oi Va Voi - Refugee
TTITLE18=Articolo 31 - La mia ragazza mena
TTITLE19=360 Gradi ft Fiorello - E poi non ti ho vista più
TTITLE20=Irene Grandi - Prima di partire per un lungo viaggio
EXTD=
EXTT0=
EXTT1=
EXTT2=
EXTT3=
EXTT4=
EXTT5=
EXTT6=
EXTT7=
EXTT8=
EXTT9=
EXTT10=
EXTT11=
EXTT12=
EXTT13=
EXTT14=
EXTT15=
EXTT16=
EXTT17=
EXTT18=
EXTT19=
EXTT20=
PLAYORDER=
